<svg width="21" height="21" viewBox="0 0 21 21" fill="none" xmlns="http://www.w3.org/2000/svg">
<path d="M4.375 0.975855H4.37496C2.01785 0.975 0.1 2.89283 0.1 5.24998V15.75C0.1 18.1071 2.01785 20.025 4.375 20.025H5.25C5.67784 20.025 6.025 19.6786 6.025 19.25C6.025 18.8214 5.67784 18.475 5.25 18.475H4.375C2.87252 18.475 1.65 17.2525 1.65 15.75V7.87498V7.77498H1.75H19.25H19.35V7.87498V15.75C19.35 17.2525 18.1275 18.475 16.625 18.475H15.75C15.3214 18.475 14.975 18.8213 14.975 19.25C14.975 19.6786 15.3214 20.025 15.75 20.025H16.625C18.9821 20.025 20.9 18.1071 20.9 15.75V6.99998C20.9 4.64283 18.9821 2.72498 16.625 2.72498H10.913C10.7632 2.72498 10.6113 2.69007 10.4771 2.6225L10.4772 2.62255L4.375 0.975855ZM4.375 0.975855H6.587C6.9766 0.975855 7.36641 1.06761 7.71565 1.2418L4.375 0.975855ZM19.2308 6.2241H19.089H1.75H1.65V6.1241V5.24998C1.65 3.7475 2.87252 2.52498 4.375 2.52498H6.587C6.73684 2.52498 6.88877 2.5599 7.02301 2.62749C7.02304 2.62751 7.02307 2.62753 7.02311 2.62754L9.78426 4.00812L19.2308 6.2241ZM19.2308 6.2241L19.1832 6.09052M19.2308 6.2241L19.1832 6.09052M19.1832 6.09052C18.8075 5.03686 17.8087 4.2741 16.625 4.2741H10.913C10.5234 4.2741 10.1336 4.18235 9.78435 4.00816L19.1832 6.09052ZM7.71574 1.24184L10.4769 2.62242L7.71574 1.24184ZM8.73934 19.2948L8.73931 19.2947L7.32709 17.8834C7.02401 17.5803 7.02401 17.0906 7.32709 16.7876C7.63016 16.4845 8.11984 16.4845 8.42291 16.7876L9.55429 17.9189L9.725 18.0897V17.8482V11.375C9.725 10.9464 10.0722 10.6 10.5 10.6C10.9278 10.6 11.275 10.9464 11.275 11.375V17.8482V18.0897L11.4457 17.9189L12.5771 16.7876C12.8802 16.4845 13.3698 16.4845 13.6729 16.7876C13.976 17.0906 13.976 17.5803 13.6729 17.8834L12.2615 19.2948C11.7763 19.78 11.1388 20.0224 10.5 20.0224C9.86119 20.0224 9.22462 19.7801 8.73934 19.2948Z" fill="#7B7B7B" stroke="white" stroke-width="0.2"/>
</svg>
