<svg width="199" height="41" viewBox="0 0 199 41" fill="none" xmlns="http://www.w3.org/2000/svg">
<g clip-path="url(#clip0_465_903)">
<path fill-rule="evenodd" clip-rule="evenodd" d="M9.46433 0.5H23.3287V4.58421H14.3349V8.71053H25.8194L28.5175 22.7456L31.1327 8.71053H36.446L39.0196 22.7456L41.7593 8.71053H46.782L43.5027 20.7105H49.8538L52.4274 30.3526C52.6765 31.1947 52.884 32.0368 53.0501 32.8368C53.2161 33.6368 53.4237 34.3947 53.5482 35.1526C53.7142 34.3526 53.9218 33.5105 54.1293 32.6263C54.3369 31.7421 54.5859 30.8158 54.8212 29.8193L57.2841 20.7105H64.1333V36.4158L199 36.3737V40.4579L64.0503 40.5H59.5533V31.7281C59.5533 31.0965 59.5533 30.2544 59.5948 29.1175C59.6363 27.9807 59.6779 26.7175 59.7609 25.2579L55.9973 40.5H51.0576L47.3908 25.2579C47.4323 27.0123 47.5154 28.6263 47.5154 30.0158C47.5154 31.4053 47.5984 32.5 47.5984 33.3V40.5H43.0046V22.5632L41.3857 28.4579H36.5428L33.7893 14.2684L31.022 28.4579H26.1099L21.9174 12.7807H14.3072V20.2474H9.3398V4.58421H0V0.5H9.46433Z" fill="#C70100"/>
<path fill-rule="evenodd" clip-rule="evenodd" d="M74.5938 17.3842H78.7863V11.0263H85.4694V7.53159H78.7863V4.03685H86.4657V0.542114H74.5938V17.3842Z" fill="white"/>
<path d="M87.296 13.3842H83.1035V17.3842H87.296V13.3842Z" fill="white"/>
<path fill-rule="evenodd" clip-rule="evenodd" d="M93.9377 17.3842H98.0887L100.455 5.30001L102.821 17.3842H106.972L111.538 0.542114H107.262L104.938 12.5L102.738 0.542114H98.2133L96.0132 12.5L93.6886 0.542114H89.4131L93.9377 17.3842Z" fill="white"/>
<path d="M113.738 13.3842H109.545V17.3842H113.738V13.3842Z" fill="white"/>
<path fill-rule="evenodd" clip-rule="evenodd" d="M118.996 17.3421H123.022V11.1947C123.022 10.0158 122.981 7.68597 122.856 4.33158L126.108 17.3421H130.467L133.746 4.33158C133.663 7.11053 133.58 8.96316 133.58 9.84737V17.3421H137.606V0.5H131.587L129.429 8.2193C128.972 9.8614 128.599 11.3351 128.308 12.8088C128.017 11.4614 127.685 10.0719 127.312 8.68246L125.07 0.5H118.996V17.3421Z" fill="white"/>
<path fill-rule="evenodd" clip-rule="evenodd" d="M141.01 17.3421H154.335V13.8895H145.41V10.2684H153.297V6.9H145.41V3.91053H154.044V0.5H141.01V17.3421Z" fill="white"/>
<path d="M161.475 0.5H157.075V17.3421H161.475V0.5Z" fill="white"/>
<path fill-rule="evenodd" clip-rule="evenodd" d="M164.92 17.3421H178.245V13.8895H169.32V10.2684H177.249V6.9H169.32V3.91053H177.996V0.5H164.92V17.3421Z" fill="white"/>
<path fill-rule="evenodd" clip-rule="evenodd" d="M180.86 17.3421H185.219V11.0263H188.18C189.674 11.0263 190.421 11.5737 190.601 12.9211C190.767 14.4368 190.518 15.9105 191.058 17.3421H195.665V16.7526C194.835 16.3316 195.043 15.1105 194.918 13.0474C194.794 11.0684 194.572 10.0158 192.76 9.3C194.586 8.37368 195.458 7.06842 195.458 5.17368C195.444 1.93158 193.369 0.5 189.079 0.5H180.86V17.3421Z" fill="white"/>
<path fill-rule="evenodd" clip-rule="evenodd" d="M185.219 7.69999V3.86841H188.622C190.283 3.86841 191.071 4.45788 191.071 5.67893C191.071 7.11051 190.283 7.69999 188.498 7.69999H185.219Z" fill="#111111"/>
<path fill-rule="evenodd" clip-rule="evenodd" d="M76.7523 22.6895H79.3259C80.3222 22.6895 80.9448 22.9421 80.9448 23.8684C80.9448 24.7947 80.2807 25.0895 79.3674 25.0895H76.7523V22.6895ZM76.7523 26.9421H79.6165C80.4052 26.9421 81.2354 27.321 81.2354 28.2895C81.2354 29.4263 80.5712 29.8895 79.5058 29.8895H76.7661L76.7523 26.9421ZM74.5938 31.7842H79.1184C81.3184 31.7842 81.9411 31.4053 82.5222 30.8158C82.8212 30.5193 83.0595 30.1658 83.2234 29.7756C83.3872 29.3854 83.4734 28.9662 83.4769 28.5421C83.4769 27.4474 83.1033 26.3526 81.8165 25.8474C82.2731 25.6368 83.1033 25.1737 83.1033 23.6158C83.1033 22.4789 82.4392 20.7526 79.824 20.7526H74.5938V31.7842Z" fill="white"/>
<path fill-rule="evenodd" clip-rule="evenodd" d="M89.6205 28.879C89.6205 29.8474 88.7073 30.479 87.7526 30.479C87.6252 30.4866 87.4977 30.4668 87.3785 30.4209C87.2592 30.3749 87.1509 30.3038 87.0607 30.2123C86.9705 30.1208 86.9004 30.011 86.8551 29.89C86.8098 29.769 86.7903 29.6397 86.7978 29.5105C86.7978 28.6263 87.4205 28.4158 88.2092 28.2895C89.0809 28.1211 89.413 27.9947 89.6205 27.8263V28.879ZM91.696 25.7632C91.696 23.7842 89.6205 23.4053 88.4998 23.4053C86.8809 23.4053 85.1789 23.7842 84.9299 26.2684H86.9639C87.0469 25.8053 87.2129 25.1316 88.2507 25.1316C88.7903 25.1316 89.6344 25.1737 89.6344 26.1C89.6344 26.5632 89.2608 26.6895 88.9425 26.7316L87.0331 27.0263C85.7047 27.2369 84.7085 28.0369 84.7085 29.6369C84.7085 31.3211 85.9538 31.9947 87.1576 31.9947C87.6461 32.0051 88.1307 31.9046 88.5759 31.7007C89.0212 31.4967 89.4159 31.1944 89.7312 30.8158C89.7517 31.1474 89.8217 31.4739 89.9388 31.7842H92.1803V31.4895C91.9313 31.4053 91.7237 31.1947 91.7237 30.2263L91.696 25.7632Z" fill="white"/>
<path fill-rule="evenodd" clip-rule="evenodd" d="M100.745 23.6158H98.6699V28.3316C98.6699 29.8053 97.7151 30.2263 97.051 30.2263C96.3868 30.2263 95.6673 29.9737 95.6673 28.7105V23.6158H93.5503V29.0053C93.5503 31.1105 94.7126 32.0368 96.29 32.0368C96.7834 32.0606 97.2732 31.9412 97.7021 31.6926C98.131 31.444 98.4811 31.0766 98.7114 30.6333H98.7529V31.7702H100.745V23.6158Z" fill="white"/>
<path fill-rule="evenodd" clip-rule="evenodd" d="M109.919 23.6158H107.802V28.3316C107.802 29.8053 106.889 30.2263 106.183 30.2263C105.56 30.2263 104.799 29.9737 104.799 28.7105V23.6158H102.724V29.0053C102.724 31.1105 103.845 32.0368 105.422 32.0368C105.919 32.058 106.411 31.9378 106.844 31.6898C107.277 31.4417 107.633 31.0758 107.871 30.6333V31.7702H109.905L109.919 23.6158Z" fill="white"/>
<path fill-rule="evenodd" clip-rule="evenodd" d="M119.051 26.1421C119.051 24.3316 117.848 23.4052 116.312 23.4052C115.814 23.3778 115.32 23.4988 114.89 23.7532C114.459 24.0076 114.112 24.3844 113.89 24.8368H113.849V23.6158H111.87V31.7842H113.946V27.1105C113.946 25.8894 114.693 25.2158 115.606 25.2158C116.934 25.2158 116.99 26.2263 116.99 26.8579V31.7701H119.065L119.051 26.1421Z" fill="white"/>
<path fill-rule="evenodd" clip-rule="evenodd" d="M123.368 21.4263H121.251V23.6158H120.214V25.1737H121.251V30.1421C121.251 31.1948 121.597 31.8965 123.41 31.8965H123.7C124.046 31.8965 124.323 31.8544 124.655 31.8544V30.2263C124.52 30.2611 124.38 30.2753 124.24 30.2684C123.368 30.2684 123.368 30.1 123.368 29.5948V25.1737H124.655V23.6158H123.368V21.4263Z" fill="white"/>
<path fill-rule="evenodd" clip-rule="evenodd" d="M127.519 26.9C127.644 25.8053 128.184 25.1737 129.18 25.1737C129.844 25.1737 130.674 25.5947 130.799 26.9H127.519ZM130.674 29.4263C130.55 29.9737 129.927 30.3246 129.346 30.3246C127.644 30.3246 127.519 28.9211 127.478 28.3035H132.957V27.9105C132.957 24.1632 130.757 23.4053 129.18 23.4053C125.693 23.4053 125.375 26.5632 125.375 27.5316C125.375 30.9 127.104 32.0369 129.36 32.0369C130.743 32.0369 132.307 31.3632 132.847 29.4263H130.674Z" fill="white"/>
<path fill-rule="evenodd" clip-rule="evenodd" d="M134.327 31.7842H136.403V27.5176C136.403 26.6333 136.749 25.5807 138.354 25.5807C138.548 25.5722 138.743 25.5863 138.935 25.6228V23.4474C138.81 23.4474 138.686 23.4053 138.561 23.4053C137.274 23.4053 136.776 24.2053 136.361 25.0474H136.32V23.6158H134.327V31.7842Z" fill="white"/>
<path fill-rule="evenodd" clip-rule="evenodd" d="M147.361 26.1421C147.361 24.3316 146.157 23.4052 144.594 23.4052C144.104 23.3794 143.618 23.5017 143.196 23.7565C142.775 24.0114 142.438 24.3874 142.228 24.8368H142.172V23.6158H140.18V31.7842H142.255V27.1105C142.255 25.8895 142.947 25.2158 143.916 25.2158C145.244 25.2158 145.3 26.2263 145.3 26.8579V31.7702H147.375L147.361 26.1421Z" fill="white"/>
<path fill-rule="evenodd" clip-rule="evenodd" d="M150.848 26.9C150.973 25.8053 151.471 25.1737 152.467 25.1737C153.131 25.1737 153.961 25.5947 154.086 26.9H150.848ZM154.003 29.4263C153.895 29.7037 153.703 29.939 153.454 30.098C153.205 30.257 152.913 30.3314 152.619 30.3105C150.959 30.3105 150.834 28.907 150.751 28.2895H156.231V27.9105C156.231 24.1632 154.072 23.4053 152.495 23.4053C149.008 23.4053 148.69 26.5632 148.69 27.5316C148.69 30.9 150.392 32.0369 152.633 32.0369C154.017 32.0369 155.622 31.3632 156.162 29.4263H154.003Z" fill="white"/>
<path fill-rule="evenodd" clip-rule="evenodd" d="M164.837 26.1421C164.837 24.3316 163.633 23.4053 162.07 23.4053C160.949 23.4053 160.036 23.9947 159.787 24.6684H159.745V20.7526H157.67V31.7842H159.745V27.1105C159.745 25.8895 160.437 25.2158 161.406 25.2158C162.734 25.2158 162.789 26.2263 162.789 26.8579V31.7702H164.865L164.837 26.1421Z" fill="white"/>
<path fill-rule="evenodd" clip-rule="evenodd" d="M178.203 26.1421C178.203 24.3316 176.958 23.4053 175.436 23.4053C174.998 23.4102 174.57 23.5338 174.195 23.7633C173.82 23.9928 173.513 24.3199 173.305 24.7105C172.765 23.8263 172.226 23.4053 171.064 23.4053C170.588 23.3785 170.116 23.5018 169.712 23.7581C169.308 24.0144 168.992 24.3912 168.808 24.8368H168.767V23.6158H166.774V31.7842H168.85V26.8158C168.85 25.9316 169.196 25.2158 170.178 25.2158C171.423 25.2158 171.423 26.1842 171.423 26.9V31.7842H173.499V26.9C173.499 25.9316 173.914 25.2158 174.952 25.2158C175.574 25.2158 176.072 25.6368 176.072 26.8579V31.7702H178.189L178.203 26.1421Z" fill="white"/>
<path fill-rule="evenodd" clip-rule="evenodd" d="M181.649 26.9C181.773 25.8053 182.271 25.1737 183.268 25.1737C183.932 25.1737 184.762 25.5947 184.887 26.9H181.649ZM184.804 29.4263C184.691 29.7003 184.497 29.9322 184.25 30.0904C184.002 30.2487 183.712 30.3255 183.42 30.3105C181.759 30.3105 181.635 28.907 181.552 28.2895H187.031V27.9105C187.031 24.1632 184.873 23.4053 183.295 23.4053C179.808 23.4053 179.49 26.5632 179.49 27.5316C179.49 30.9 181.192 32.0369 183.434 32.0369C184.226 32.0673 185.004 31.8263 185.644 31.3526C186.285 30.879 186.749 30.2004 186.962 29.4263H184.804Z" fill="white"/>
<path fill-rule="evenodd" clip-rule="evenodd" d="M195.638 26.1421C195.638 24.3316 194.434 23.4052 192.87 23.4052C192.38 23.3794 191.894 23.5017 191.473 23.7565C191.052 24.0114 190.714 24.3874 190.504 24.8368H190.463V23.6158H188.456V31.7842H190.532V27.1105C190.532 25.8895 191.224 25.2158 192.192 25.2158C193.521 25.2158 193.576 26.2263 193.576 26.8579V31.7702H195.651L195.638 26.1421Z" fill="white"/>
</g>
<defs>
<clipPath id="clip0_465_903">
<rect width="199" height="40" fill="white" transform="translate(0 0.5)"/>
</clipPath>
</defs>
</svg>
