<svg width="199" height="49" viewBox="0 0 199 49" fill="none" xmlns="http://www.w3.org/2000/svg">
<g clip-path="url(#clip0_179_27)">
<path d="M81.2329 34.5237V31.285H84.4942V34.5237H81.2329Z" fill="black"/>
<path d="M111.07 34.5237V31.285H114.331V34.5237H111.07Z" fill="black"/>
<path d="M65.9826 34.5236V18.1007H81.2329V21.4087H69.3357V24.6473H78.9145V27.977H69.3357V34.5236H65.9826Z" fill="black"/>
<path d="M91.7766 34.5236L85.756 18.1007H89.2706L93.0602 28.3846L96.8542 18.1007H99.9803L103.796 28.3846L107.586 18.1007H111.1L105.075 34.5236H102.504L98.4129 23.4377L94.3482 34.5236H91.7766Z" fill="black"/>
<path d="M121.317 34.5236V18.1007H124.831L130.62 24.9638L136.388 18.1007H139.924V34.5236H136.593V23.0042L130.62 30.0971L124.626 23.0259V34.5236H121.317Z" fill="black"/>
<path d="M142.107 34.5236V18.1007H157.358V21.4087H145.46V24.6473H155.039V27.977H145.46V31.2156H157.358V34.5236H142.107Z" fill="black"/>
<path d="M159.558 34.5236V18.1007H162.85V34.5236H159.558Z" fill="black"/>
<path d="M165.033 34.5236V18.1007H180.288V21.4087H168.377V24.6473H177.956V27.977H168.377V31.2156H180.279V34.5236H165.033Z" fill="black"/>
<path d="M182.457 34.5236V18.1224H195.669C196.253 18.1108 196.829 18.2609 197.332 18.5559C197.828 18.8489 198.242 19.2602 198.537 19.7525C198.843 20.2468 199.003 20.8159 199 21.3957V25.7312C199.005 26.3072 198.844 26.8726 198.537 27.3614C198.242 27.8505 197.831 28.2611 197.341 28.558C196.837 28.8511 196.262 29.0011 195.678 28.9915H185.776V34.5236H182.457ZM185.907 25.6965H195.512C195.548 25.6986 195.584 25.6861 195.612 25.6619C195.624 25.6516 195.633 25.6388 195.639 25.6246C195.645 25.6103 195.648 25.5949 195.647 25.5795V21.5431C195.65 21.5248 195.649 21.506 195.643 21.4883C195.637 21.4707 195.627 21.4546 195.614 21.4415C195.601 21.4283 195.585 21.4185 195.567 21.4128C195.549 21.4071 195.53 21.4057 195.512 21.4087H185.907C185.869 21.4048 185.831 21.4157 185.802 21.4391C185.778 21.4684 185.765 21.5054 185.767 21.5431V25.5795C185.767 25.6104 185.78 25.6401 185.802 25.6619C185.816 25.6742 185.833 25.6836 185.851 25.6896C185.869 25.6955 185.888 25.6979 185.907 25.6965ZM195.459 34.5236L190.569 28.7271H194.909L198.952 33.4961V34.5236H195.459Z" fill="black"/>
<path d="M65.9826 48.8612V41.6946H68.6808C69.1317 41.6797 69.58 41.7687 69.9905 41.9547C70.312 42.1036 70.5834 42.3415 70.7721 42.6397C70.954 42.9453 71.043 43.2966 71.0283 43.6513C71.0136 44.0059 70.8958 44.3488 70.6891 44.6384C70.431 44.9574 70.0675 45.1755 69.6631 45.2541C69.9445 45.2962 70.2122 45.4031 70.4446 45.5662C70.6616 45.723 70.8406 45.9259 70.9685 46.1602C71.0933 46.3907 71.1578 46.6486 71.1563 46.9102C71.1569 47.1539 71.1155 47.3958 71.034 47.6256C70.9473 47.8622 70.8069 48.0759 70.6236 48.2499C70.4044 48.4488 70.1434 48.5969 69.8596 48.6835C69.4769 48.8021 69.0772 48.8577 68.6764 48.8482L65.9826 48.8612ZM66.8776 42.462V44.9029H68.624C69.0101 44.9239 69.3911 44.807 69.698 44.5734C69.8314 44.4593 69.9367 44.3163 70.0056 44.1555C70.0744 43.9946 70.1052 43.8201 70.0953 43.6456C70.1024 43.4811 70.0709 43.3172 70.0035 43.1667C69.9361 43.0163 69.8345 42.8834 69.7068 42.7785C69.3975 42.5544 69.0193 42.444 68.6371 42.4663L66.8776 42.462ZM66.8776 48.0982H68.6677C69.0916 48.1382 69.5149 48.0156 69.8508 47.7557C69.9683 47.6441 70.0609 47.5092 70.1225 47.3598C70.1842 47.2105 70.2136 47.0499 70.2088 46.8886C70.2146 46.7242 70.1825 46.5607 70.1152 46.4105C70.0479 46.2603 69.947 46.1272 69.8203 46.0214C69.4873 45.7799 69.079 45.6632 68.6677 45.6919H66.8776V48.0982Z" fill="black"/>
<path d="M72.2608 48.8612L74.7407 41.6946H75.8322L78.2553 48.8612H77.3166L76.7054 47.023H73.8326L73.2039 48.8612H72.2608ZM74.064 46.3293H76.4783L75.269 42.7785L74.064 46.3293Z" fill="black"/>
<path d="M79.3468 41.6946H80.2462V46.2729C80.2211 46.5379 80.2538 46.8052 80.3419 47.0565C80.4301 47.3079 80.5716 47.5374 80.757 47.7297C81.1391 48.0225 81.6081 48.1814 82.0908 48.1814C82.5734 48.1814 83.0425 48.0225 83.4246 47.7297C83.6092 47.5371 83.7499 47.3073 83.8373 47.056C83.9247 46.8047 83.9566 46.5376 83.931 46.2729V41.6946H84.8304V46.2729C84.8471 46.7959 84.7315 47.3146 84.4942 47.7817C84.2793 48.1756 83.9468 48.4936 83.5425 48.6922C83.0865 48.895 82.5926 48.9999 82.093 48.9999C81.5934 48.9999 81.0994 48.895 80.6435 48.6922C80.2375 48.4944 79.9034 48.1762 79.6873 47.7817C79.4466 47.3157 79.3294 46.7964 79.3468 46.2729V41.6946Z" fill="black"/>
<path d="M87.0658 41.6946H87.9608V46.2729C87.9358 46.5379 87.9684 46.8052 88.0566 47.0565C88.1447 47.3079 88.2862 47.5374 88.4716 47.7297C88.848 48.0357 89.3263 48.1904 89.812 48.1632C90.2876 48.1853 90.7546 48.0308 91.1218 47.7297C91.3071 47.5374 91.4487 47.3079 91.5368 47.0565C91.6249 46.8052 91.6576 46.5379 91.6326 46.2729V41.6946H92.5581V46.2729C92.5748 46.7959 92.4592 47.3146 92.222 47.7817C92.0071 48.1756 91.6746 48.4936 91.2702 48.6922C90.8194 48.9056 90.3244 49.0111 89.8251 49C89.3229 49.0112 88.8251 48.9057 88.3712 48.6922C87.9652 48.4944 87.6311 48.1762 87.4151 47.7817C87.1758 47.3153 87.0601 46.7961 87.0789 46.2729L87.0658 41.6946Z" fill="black"/>
<path d="M94.5708 41.6946H95.6361L99.3035 47.5953H99.2206V41.6946H100.12V48.8612H99.1071L95.3131 42.7915H95.4528V48.8612H94.5796L94.5708 41.6946Z" fill="black"/>
<path d="M101.347 42.462V41.6946H106.966V42.462H104.399L104.599 42.2539V48.8612H103.704V42.2539L103.905 42.462H101.347Z" fill="black"/>
<path d="M108.18 48.8612V41.6946H112.642V42.462H109.092V44.8682H112.436V45.6313H109.092V48.0852H112.642V48.8612H108.18Z" fill="black"/>
<path d="M114.545 48.8612V41.6946H117.06C117.735 41.6446 118.404 41.8541 118.928 42.2799C119.338 42.6864 119.568 43.2377 119.568 43.8125C119.568 44.3873 119.338 44.9386 118.928 45.3451C118.404 45.7709 117.735 45.9804 117.06 45.9304H115.44V48.8612H114.545ZM115.44 45.3017H117.007C117.455 45.3327 117.897 45.1914 118.243 44.9072C118.507 44.6276 118.654 44.2586 118.654 43.8753C118.654 43.4921 118.507 43.1231 118.243 42.8435C117.914 42.5679 117.489 42.431 117.06 42.462H115.44V45.3017ZM118.588 48.8612L116.523 45.6096H117.496L119.749 48.8612H118.588Z" fill="black"/>
<path d="M121.57 41.6946H122.64L126.303 47.5953H126.224V41.6946H127.119V48.8612H126.119L122.33 42.7915H122.465V48.8612H121.57V41.6946Z" fill="black"/>
<path d="M129.429 48.8612V41.6946H133.878V42.462H130.324V44.8682H133.668V45.6313H130.324V48.0852H133.878V48.8612H129.429Z" fill="black"/>
<path d="M135.899 41.6946H136.794V44.8552H140.37V41.6946H141.243V48.8612H140.37V45.6226H136.794V48.8612H135.899V41.6946Z" fill="black"/>
<path d="M143.395 41.6946H144.683L147.167 46.6501H147.076L149.556 41.6946H150.809V48.8612H149.901V42.6224H150.062L147.416 47.9595H146.823L144.203 42.6528H144.308V48.8612H143.408L143.395 41.6946Z" fill="black"/>
<path d="M152.948 48.8612V41.6946H157.393V42.462H153.843V44.8682H157.174V45.6313H153.83V48.0852H157.379V48.8612H152.948Z" fill="black"/>
<path d="M159.314 41.6946H160.383L164.046 47.5953H163.968V41.6946H164.863V48.8612H163.863L160.069 42.7915H160.23V48.8612H159.314V41.6946Z" fill="black"/>
<path d="M0 12.1394V36.7262H7.9504V18.2959L29.6885 12.9025L34.4342 11.7059L40.9832 10.0844L48.9292 8.11609V0L0 12.1394ZM0 40.9533V48.8483H36.7176V40.9533H0ZM40.9788 14.4676V48.8483H48.9248V12.4993L40.9788 14.4676Z" fill="#C70100"/>
</g>
<defs>
<clipPath id="clip0_179_27">
<rect width="199" height="49" fill="white"/>
</clipPath>
</defs>
</svg>
