<svg width="41" height="41" viewBox="0 0 41 41" fill="none" xmlns="http://www.w3.org/2000/svg">
<circle cx="20.375" cy="20.375" r="20.375" fill="#C70100"/>
<g clip-path="url(#clip0_271_572)">
<path d="M25.3279 13.9229L25.3281 13.9229C25.7686 13.9237 26.1989 14.0564 26.5634 14.3039C26.9279 14.5513 27.21 14.9021 27.3735 15.3113L27.3943 15.3632L27.3547 15.4028L21.9369 20.8213L21.9368 20.8214C21.5222 21.2343 20.9608 21.4662 20.3757 21.4662C19.7905 21.4662 19.2291 21.2343 18.8145 20.8214L18.8144 20.8213L13.3966 15.4028L13.357 15.3632L13.3778 15.3113C13.5413 14.9021 13.8234 14.5513 14.1879 14.3038C14.5524 14.0564 14.9827 13.9237 15.4232 13.9229L15.4234 13.9229L25.3279 13.9229ZM27.3903 17.1313L27.5352 16.9865L27.5352 17.1914L27.5352 24.6197C27.5352 25.2052 27.3026 25.7666 26.8887 26.1805C26.4748 26.5945 25.9133 26.827 25.3279 26.827L15.4234 26.827C14.838 26.827 14.2766 26.5945 13.8626 26.1805C13.4487 25.7666 13.2161 25.2052 13.2161 24.6197L13.2161 17.1914L13.2161 16.9865L13.361 17.1313L17.934 21.7015C18.5821 22.348 19.4602 22.711 20.3757 22.711C21.2911 22.711 22.1692 22.348 22.8173 21.7015L27.3903 17.1313ZM27.7679 13.6902C27.1207 13.0429 26.2431 12.6788 25.3278 12.6777L15.4234 12.6777C14.5081 12.6788 13.6306 13.0429 12.9834 13.6902C12.3362 14.3374 11.9721 15.2149 11.971 16.1303L11.971 24.6196C11.9721 25.535 12.3362 26.4125 12.9834 27.0597C13.6306 27.707 14.5082 28.0711 15.4235 28.0722L25.3278 28.0722C26.2431 28.0711 27.1207 27.707 27.7679 27.0597C28.4151 26.4125 28.7792 25.535 28.7803 24.6196L28.7803 16.1302C28.7792 15.2149 28.4151 14.3374 27.7679 13.6902Z" fill="white" stroke="white" stroke-width="0.169792"/>
</g>
<defs>
<clipPath id="clip0_271_572">
<rect width="16.9792" height="16.9792" fill="white" transform="matrix(-1 -8.74228e-08 -8.74228e-08 1 28.8652 11.8854)"/>
</clipPath>
</defs>
</svg>
