<svg width="40" height="40" viewBox="0 0 40 40" fill="none" xmlns="http://www.w3.org/2000/svg">
<circle cx="20" cy="20" r="20" fill="#C70100"/>
<g clip-path="url(#clip0_271_557)">
<path d="M27.4794 24.6686L27.485 24.6751C27.6451 24.8596 27.7272 25.0992 27.7138 25.3432C27.7006 25.5855 27.5942 25.8134 27.4171 25.9791L26.7241 26.7778L26.7186 26.7842L26.7183 26.7839C25.5485 27.8893 23.832 27.9051 22.0119 27.2551C20.1893 26.6042 18.239 25.2789 16.5694 23.6598C14.8999 22.0406 13.5043 20.1213 12.7969 18.2766C12.0899 16.4329 12.0646 14.6452 13.1702 13.3159L13.179 13.3053L13.1797 13.3061L14.0561 12.544C14.2234 12.3787 14.4474 12.2833 14.6825 12.2772C14.9187 12.2711 15.1482 12.3556 15.3241 12.5133L15.3299 12.5185L15.3347 12.5247L15.2674 12.5765L15.3347 12.5248L15.3348 12.5248L15.3349 12.5251L15.3357 12.5261L15.3387 12.53L15.3505 12.5453L15.3952 12.6034L15.5548 12.8109C15.687 12.9828 15.8635 13.2122 16.0408 13.4423C16.218 13.6724 16.396 13.9032 16.5311 14.0779C16.5987 14.1652 16.6555 14.2384 16.6961 14.2905L16.744 14.3516L16.7571 14.3681C16.7582 14.3694 16.759 14.3704 16.7595 14.371C16.9302 14.5441 17.0259 14.7774 17.0259 15.0205C17.0259 15.2638 16.93 15.4973 16.7591 15.6705C16.7587 15.671 16.758 15.6717 16.7571 15.6729L16.7457 15.6867L16.7039 15.7383C16.6685 15.7822 16.6189 15.844 16.5599 15.9176C16.442 16.0648 16.2866 16.2593 16.1319 16.4533L15.7077 16.9853L15.5684 17.1602L15.5294 17.2091L15.5191 17.222L15.5165 17.2253L15.5158 17.2262L15.5157 17.2264L15.5156 17.2264L15.4492 17.1736L15.5156 17.2264L15.5155 17.2265C15.4403 17.3208 15.3915 17.4333 15.3742 17.5527C15.3569 17.672 15.3717 17.7938 15.4171 17.9055L15.418 17.9077L15.4179 17.9077C15.9892 19.4351 16.882 20.8219 18.036 21.9742C19.1899 23.1264 20.5781 24.0172 22.1063 24.5862L22.1069 24.5865C22.2171 24.6285 22.3364 24.6411 22.453 24.623C22.5695 24.6049 22.6794 24.5567 22.7717 24.4833C22.7717 24.4833 22.7717 24.4832 22.7717 24.4832L22.7717 24.4832L22.7719 24.483L22.7727 24.4824L22.7761 24.4797L22.7889 24.4695L22.8379 24.4305L23.0127 24.2911L23.5445 23.8669C23.7384 23.7121 23.9329 23.5567 24.0802 23.4386C24.1538 23.3796 24.2156 23.33 24.2596 23.2945L24.3112 23.2526L24.3251 23.2411C24.3263 23.2401 24.3271 23.2394 24.3276 23.239C24.3291 23.2377 24.328 23.2386 24.3261 23.2404C24.3257 23.2408 24.3253 23.2413 24.3248 23.2418L24.3261 23.2404L27.4794 24.6686ZM27.4794 24.6686L27.4726 24.6634L27.4209 24.7307L27.4726 24.6634L27.4725 24.6634L27.4723 24.6632L27.4713 24.6624L27.4674 24.6594L27.4521 24.6476L27.394 24.603L27.1866 24.4433L26.5557 23.9574C26.3258 23.7801 26.0951 23.6021 25.9205 23.467C25.8331 23.3994 25.7599 23.3426 25.7077 23.302L25.6465 23.254L25.6299 23.2409C25.6285 23.2397 25.6275 23.2389 25.6269 23.2384L27.4794 24.6686ZM27.7219 18.4722V18.4721C27.7201 16.8294 27.0667 15.2545 25.9052 14.0929C24.7436 12.9314 23.1687 12.278 21.526 12.2762H21.5259C21.3458 12.2762 21.1731 12.2046 21.0458 12.0773C20.9185 11.95 20.8469 11.7773 20.8469 11.5972C20.8469 11.4171 20.9185 11.2444 21.0458 11.117C21.1731 10.9897 21.3458 10.9182 21.5259 10.9182C23.5287 10.9204 25.4488 11.717 26.8649 13.1331C28.2811 14.5493 29.0777 16.4695 29.0799 18.4723C29.0799 18.6523 29.0084 18.825 28.881 18.9523C28.7537 19.0796 28.581 19.1512 28.4009 19.1512C28.2208 19.1512 28.0481 19.0796 27.9208 18.9523C27.7935 18.825 27.7219 18.6523 27.7219 18.4722ZM26.6104 22.1816L26.5586 22.2489L26.5587 22.249L26.5589 22.2491L26.5599 22.2499L26.5639 22.2529L26.5792 22.2648L26.6376 22.3097L26.8461 22.4703L27.4804 22.9592C27.7117 23.1375 27.9436 23.3165 28.1191 23.4524C28.2069 23.5204 28.2806 23.5775 28.333 23.6184L28.3945 23.6666L28.4112 23.6798C28.4125 23.6809 28.4135 23.6817 28.4141 23.6822C28.8395 24.11 29.0783 24.6888 29.0783 25.2922C29.0783 25.8966 28.8387 26.4764 28.4119 26.9044L28.4117 26.9042L28.4078 26.9087L27.7153 27.707C26.1815 29.1732 24.0944 29.3479 21.8983 28.671C19.7001 27.9935 17.4063 26.4654 15.4876 24.5517C13.5689 22.638 12.0323 20.3456 11.3417 18.1463C10.6518 15.9489 10.8093 13.8583 12.2524 12.3199L13.1277 11.5589L13.1278 11.559L13.131 11.5558C13.5594 11.141 14.1339 10.9115 14.7301 10.9171C15.3254 10.9226 15.8946 11.1618 16.3151 11.5832C16.3156 11.5838 16.3164 11.5848 16.3175 11.5862L16.3308 11.6028L16.379 11.6644C16.4199 11.7168 16.477 11.7905 16.545 11.8783C16.681 12.054 16.8601 12.286 17.0386 12.5173L17.5277 13.1519L17.6883 13.3605L17.7333 13.4189L17.7451 13.4342L17.7482 13.4382L17.749 13.4392L17.7491 13.4394L17.7492 13.4395L17.8165 13.3877L17.7488 13.4398L17.755 13.4463C18.1599 13.8717 18.3854 14.4368 18.3844 15.0241C18.3834 15.6115 18.1562 16.1759 17.7498 16.6L17.7496 16.5997L17.7447 16.6059L16.8601 17.7181L16.8291 17.7571L16.848 17.8032C17.3418 19.003 18.0678 20.0934 18.9843 21.0118C19.9009 21.9302 20.9898 22.6584 22.1886 23.1546L22.2348 23.1737L22.2739 23.1426L23.393 22.2526L23.3932 22.2529L23.3989 22.2475C23.823 21.8415 24.3873 21.6145 24.9745 21.6137C25.5616 21.6129 26.1265 21.8383 26.5518 22.2431L26.5515 22.2434L26.5586 22.2489L26.6104 22.1816ZM25.6292 23.2407L25.629 23.2404L25.6292 23.2407ZM16.7563 15.6733L16.7577 15.6719C16.7572 15.6724 16.7568 15.6728 16.7563 15.6733ZM23.7466 16.2515C23.1576 15.6626 22.3588 15.3317 21.5259 15.3317C21.3458 15.3317 21.1731 15.2602 21.0458 15.1328C20.9185 15.0055 20.8469 14.8328 20.8469 14.6527C20.8469 14.4726 20.9185 14.2999 21.0458 14.1726C21.1731 14.0453 21.3458 13.9738 21.5258 13.9737C22.7186 13.9749 23.8621 14.4493 24.7055 15.2926C25.5488 16.136 26.0232 17.2795 26.0244 18.4723C26.0243 18.6523 25.9528 18.825 25.8255 18.9523C25.6982 19.0796 25.5254 19.1512 25.3454 19.1512C25.1653 19.1512 24.9926 19.0796 24.8652 18.9523C24.7379 18.825 24.6664 18.6523 24.6664 18.4722C24.6664 17.6393 24.3355 16.8405 23.7466 16.2515Z" fill="white" stroke="white" stroke-width="0.169792"/>
</g>
<defs>
<clipPath id="clip0_271_557">
<rect width="18.3333" height="18.3333" fill="white" transform="translate(10.832 10.8333)"/>
</clipPath>
</defs>
</svg>
