<svg width="1320" height="163" viewBox="0 0 1320 163" fill="none" xmlns="http://www.w3.org/2000/svg">
<path d="M151.336 162.973V130.835H183.7V162.973H151.336Z" fill="white"/>
<path d="M447.423 162.973V130.835H479.787V162.973H447.423Z" fill="white"/>
<path d="M0 162.973V0H151.336V32.8269H33.274V64.9655H128.33V98.0076H33.274V162.973H0Z" fill="white"/>
<path d="M255.968 162.973L196.222 0H231.099L268.705 102.052L306.355 0H337.376L375.243 102.052L412.849 0H447.726L387.937 162.973H362.419L321.823 52.9619L281.486 162.973H255.968Z" fill="white"/>
<path d="M549.107 162.973V0H583.984L641.434 68.1062L698.667 0H733.76V162.973H700.703V48.6596L641.434 119.046L581.948 48.8747V162.973H549.107Z" fill="white"/>
<path d="M755.424 162.973V0H906.76V32.8269H788.698V64.9655H883.754V98.0076H788.698V130.146H906.76V162.973H755.424Z" fill="white"/>
<path d="M928.596 162.973V0H961.264V162.973H928.596Z" fill="white"/>
<path d="M982.926 162.973V0H1134.31V32.8269H1016.11V64.9655H1111.17V98.0076H1016.11V130.146H1134.22V162.973H982.926Z" fill="white"/>
<path d="M1155.84 162.973V0.215162H1286.94C1292.74 0.099972 1298.46 1.58969 1303.45 4.51751C1308.37 7.42452 1312.48 11.5063 1315.41 16.392C1318.44 21.2965 1320.03 26.9439 1320 32.6979V75.7214C1320.05 81.4372 1318.45 87.048 1315.41 91.8983C1312.48 96.7519 1308.4 100.827 1303.54 103.773C1298.53 106.682 1292.82 108.17 1287.03 108.075H1188.77V162.973H1155.84ZM1190.07 75.3773H1285.38C1285.75 75.3974 1286.1 75.2737 1286.38 75.0331C1286.49 74.9309 1286.58 74.8046 1286.64 74.6632C1286.7 74.5218 1286.73 74.3689 1286.72 74.2156V34.1607C1286.75 33.9789 1286.74 33.7925 1286.68 33.6171C1286.63 33.4418 1286.53 33.2823 1286.4 33.152C1286.27 33.0217 1286.11 32.9243 1285.93 32.8678C1285.75 32.8113 1285.57 32.7973 1285.38 32.827H1190.07C1189.69 32.7881 1189.32 32.8962 1189.03 33.1282C1188.79 33.4194 1188.67 33.7862 1188.68 34.1607V74.2156C1188.68 74.5229 1188.81 74.8168 1189.03 75.0331C1189.17 75.1555 1189.33 75.249 1189.51 75.308C1189.69 75.3671 1189.88 75.3906 1190.07 75.3773ZM1284.86 162.973L1236.34 105.451H1279.4L1319.52 152.777V162.973H1284.86Z" fill="white"/>
</svg>
