<svg width="51" height="51" viewBox="0 0 51 51" fill="none" xmlns="http://www.w3.org/2000/svg">
<mask id="path-1-inside-1_488_1567" fill="white">
<path d="M47.8682 48.5982H47.8467V19.097C47.8467 19.0546 47.8467 19.0121 47.8397 18.9702C47.8397 18.9632 47.8397 18.9557 47.8397 18.9487C47.8327 18.9207 47.8327 18.8853 47.8258 18.8573C47.8258 18.8434 47.8188 18.8219 47.8118 18.8079C47.8048 18.7869 47.8048 18.766 47.7978 18.7445C47.7908 18.7235 47.7833 18.7026 47.7763 18.6811C47.7693 18.6671 47.7693 18.6531 47.7623 18.6391C47.7554 18.6176 47.7414 18.5967 47.7344 18.5757C47.7274 18.5612 47.7199 18.5472 47.7129 18.5333C47.6989 18.5123 47.6919 18.4908 47.678 18.4768C47.671 18.4629 47.664 18.4489 47.6565 18.4349C47.6425 18.4204 47.6355 18.3994 47.6215 18.3855C47.6076 18.3715 47.6006 18.357 47.5861 18.343C47.5721 18.329 47.5651 18.3151 47.5511 18.3011C47.5372 18.2866 47.5226 18.2656 47.5087 18.2516C47.5017 18.2377 47.4877 18.2302 47.4737 18.2232C47.4592 18.2092 47.4383 18.1882 47.4243 18.1743C47.4173 18.1667 47.4033 18.1597 47.3888 18.1458C47.3679 18.1318 47.3469 18.1178 47.3329 18.1039C47.3184 18.0963 47.3044 18.0893 47.2975 18.0824C47.2765 18.0684 47.255 18.0544 47.241 18.0474C47.2201 18.0404 47.2061 18.0259 47.1846 18.0189C47.1706 18.012 47.1497 18.005 47.1357 17.998C47.1072 17.984 47.0793 17.977 47.0508 17.9695C47.0438 17.9695 47.0368 17.9625 47.0228 17.9625C46.9874 17.9485 46.9454 17.9416 46.91 17.9346H46.903L41.0208 16.7017V4.58589C41.0208 4.54343 41.0208 4.50151 41.0138 4.45905C41.0138 4.45207 41.0138 4.44508 41.0068 4.43057C40.9999 4.40262 40.9999 4.36715 40.9929 4.33921C40.9859 4.31825 40.9859 4.30374 40.9789 4.28976C40.9719 4.2688 40.9719 4.24784 40.9649 4.23333C40.9579 4.21237 40.9504 4.19141 40.9434 4.16992C40.9364 4.15594 40.9364 4.14197 40.9295 4.128C40.9225 4.1065 40.9085 4.08554 40.9015 4.05759C40.8945 4.04362 40.887 4.02911 40.88 4.02212C40.866 4.00116 40.8591 3.9802 40.8451 3.95871C40.8381 3.94473 40.8311 3.93076 40.8236 3.92377C40.8096 3.90926 40.8026 3.8883 40.7887 3.87433C40.7747 3.86036 40.7677 3.84638 40.7532 3.83187C40.7392 3.8179 40.7322 3.80393 40.7182 3.78995C40.7043 3.77544 40.6898 3.76147 40.6758 3.74051C40.6618 3.72654 40.6548 3.71955 40.6409 3.71203C40.6263 3.69805 40.6054 3.67709 40.5914 3.66312C40.5774 3.65613 40.5705 3.64915 40.5559 3.63464C40.535 3.62066 40.521 3.60669 40.5 3.59272C40.4855 3.58573 40.4716 3.57821 40.4576 3.57122C40.4366 3.55725 40.4221 3.55026 40.4012 3.53629C40.3802 3.5293 40.3662 3.51479 40.3447 3.5078C40.3308 3.50082 40.3168 3.49383 40.2953 3.48684C40.2673 3.47287 40.2319 3.46588 40.2039 3.45191C40.1969 3.45191 40.19 3.44439 40.183 3.44439C40.1405 3.43041 40.0981 3.42343 40.0561 3.40945L23.8193 0.0139731C23.7838 0.00698658 23.7489 0 23.7204 0C23.7134 0 23.7064 0 23.6995 0C23.6785 0 23.657 0 23.636 0C23.6151 0 23.5936 0 23.5796 0C23.5796 0 23.5796 0 23.5726 0C23.5517 0 23.5372 0 23.5162 0C23.4952 0 23.4737 0 23.4598 0C23.4318 0 23.4103 0.00698658 23.3824 0.0139731C23.3684 0.0139731 23.3544 0.0139731 23.3474 0.0209598H23.3399H23.3329L9.97028 2.63448C9.93481 2.64147 9.90686 2.64845 9.87139 2.65544C9.86441 2.65544 9.85742 2.65544 9.85043 2.66296C9.82249 2.66995 9.794 2.68392 9.76606 2.69091C9.75907 2.69091 9.75208 2.6979 9.73757 2.6979C9.71661 2.70488 9.69565 2.71886 9.68168 2.72584C9.52636 2.80377 9.39254 2.90212 9.28721 3.02895C9.28721 3.03594 9.27968 3.03594 9.27968 3.04293C9.2727 3.05744 9.26571 3.06442 9.25174 3.0784C9.17435 3.18373 9.11093 3.30358 9.06847 3.43041C9.06847 3.4374 9.06149 3.44439 9.06149 3.44439C9.0545 3.4589 9.0545 3.47287 9.04751 3.48684C9.04053 3.5078 9.03354 3.53629 9.02655 3.55725V3.57821C9.01903 3.61368 9.01204 3.64162 9.01204 3.67709V3.69107C9.01204 3.72654 9.00506 3.76147 9.00506 3.79694V13.1235L4.34877 14.0393C4.31383 14.0463 4.27836 14.0532 4.24343 14.0672C4.23644 14.0672 4.23644 14.0672 4.22946 14.0742C4.19399 14.0812 4.16604 14.0957 4.13057 14.1097C4.12358 14.1097 4.1166 14.1167 4.10961 14.1167C4.08811 14.1237 4.06715 14.1376 4.04619 14.1446C3.90539 14.215 3.77855 14.3139 3.67268 14.4268C3.66569 14.4337 3.65871 14.4477 3.64473 14.4547C3.63775 14.4617 3.63022 14.4757 3.62324 14.4902C3.53187 14.6095 3.46147 14.7503 3.41901 14.8986C3.41203 14.9266 3.40504 14.9475 3.39805 14.976V14.99C3.39107 15.0255 3.38408 15.0604 3.38408 15.0959V15.1028C3.37709 15.1378 3.37709 15.1802 3.37709 15.2157V48.6051H3.3556C2.69348 48.6051 2.1582 49.1404 2.1582 49.8025C2.1582 50.4646 2.69348 50.9999 3.3556 50.9999H47.8752C48.5373 50.9999 49.0726 50.4646 49.0726 49.8025C49.0656 49.1334 48.5303 48.5982 47.8682 48.5982ZM23.1712 15.3775C23.2625 15.4129 23.3684 15.4339 23.4668 15.4409L45.4519 20.0547V24.0559L17.9656 18.2866V14.2854L23.1712 15.3775ZM45.4519 30.2831L17.9656 24.5138V20.3014L45.4519 26.0707V30.2831ZM45.4519 32.2979V36.4678L17.9656 30.741V26.5286L45.4519 32.2979ZM17.9656 32.7553L45.4519 38.4896V42.702L17.9656 36.9752V32.7553ZM45.4519 44.7168V48.5982H17.9656V38.9825L45.4519 44.7168ZM24.763 13.2643V2.65544L38.619 5.55057V16.1734L24.763 13.2643ZM11.3859 4.78312L22.3682 2.63448V12.764L17.0144 11.644C17.0004 11.644 16.9794 11.637 16.9649 11.637C16.951 11.637 16.93 11.63 16.916 11.63C16.8875 11.623 16.8596 11.623 16.8311 11.623C16.8171 11.623 16.8032 11.623 16.7892 11.623C16.7537 11.623 16.7188 11.623 16.6833 11.623C16.6763 11.623 16.6693 11.623 16.6624 11.623C16.6199 11.63 16.5705 11.63 16.5285 11.644L11.3859 12.6516V4.78312ZM5.76489 16.1944L10.2449 15.3141C10.3648 15.3071 10.4846 15.2861 10.5899 15.2437L15.5703 14.2645V18.2796L7.50455 19.9494C6.96927 20.0617 6.63123 20.583 6.7371 21.1113C6.83545 21.5762 7.2439 21.9003 7.70179 21.9003C7.76521 21.9003 7.83561 21.8933 7.89903 21.8793L15.5633 20.2944V24.5068L7.49757 26.1761C6.96229 26.2889 6.62424 26.8102 6.73012 27.3385C6.82847 27.8034 7.23691 28.1275 7.6948 28.1275C7.75822 28.1275 7.82862 28.1205 7.89204 28.1065L15.5563 26.5216V30.741L7.49058 32.4102C6.9553 32.5231 6.61726 33.0444 6.72313 33.5727C6.82148 34.0376 7.22993 34.3616 7.68782 34.3616C7.75123 34.3616 7.82164 34.3547 7.88505 34.3407L15.5493 32.7553V36.9682L7.48359 38.6374C6.94831 38.7503 6.61027 39.2716 6.71561 39.7999C6.81449 40.2648 7.22294 40.5888 7.68083 40.5888C7.74425 40.5888 7.81465 40.5819 7.87807 40.5673L15.5703 38.9825V48.5982H5.76489V16.1944Z"/>
</mask>
<path d="M47.8682 48.5982H47.8467V19.097C47.8467 19.0546 47.8467 19.0121 47.8397 18.9702C47.8397 18.9632 47.8397 18.9557 47.8397 18.9487C47.8327 18.9207 47.8327 18.8853 47.8258 18.8573C47.8258 18.8434 47.8188 18.8219 47.8118 18.8079C47.8048 18.7869 47.8048 18.766 47.7978 18.7445C47.7908 18.7235 47.7833 18.7026 47.7763 18.6811C47.7693 18.6671 47.7693 18.6531 47.7623 18.6391C47.7554 18.6176 47.7414 18.5967 47.7344 18.5757C47.7274 18.5612 47.7199 18.5472 47.7129 18.5333C47.6989 18.5123 47.6919 18.4908 47.678 18.4768C47.671 18.4629 47.664 18.4489 47.6565 18.4349C47.6425 18.4204 47.6355 18.3994 47.6215 18.3855C47.6076 18.3715 47.6006 18.357 47.5861 18.343C47.5721 18.329 47.5651 18.3151 47.5511 18.3011C47.5372 18.2866 47.5226 18.2656 47.5087 18.2516C47.5017 18.2377 47.4877 18.2302 47.4737 18.2232C47.4592 18.2092 47.4383 18.1882 47.4243 18.1743C47.4173 18.1667 47.4033 18.1597 47.3888 18.1458C47.3679 18.1318 47.3469 18.1178 47.3329 18.1039C47.3184 18.0963 47.3044 18.0893 47.2975 18.0824C47.2765 18.0684 47.255 18.0544 47.241 18.0474C47.2201 18.0404 47.2061 18.0259 47.1846 18.0189C47.1706 18.012 47.1497 18.005 47.1357 17.998C47.1072 17.984 47.0793 17.977 47.0508 17.9695C47.0438 17.9695 47.0368 17.9625 47.0228 17.9625C46.9874 17.9485 46.9454 17.9416 46.91 17.9346H46.903L41.0208 16.7017V4.58589C41.0208 4.54343 41.0208 4.50151 41.0138 4.45905C41.0138 4.45207 41.0138 4.44508 41.0068 4.43057C40.9999 4.40262 40.9999 4.36715 40.9929 4.33921C40.9859 4.31825 40.9859 4.30374 40.9789 4.28976C40.9719 4.2688 40.9719 4.24784 40.9649 4.23333C40.9579 4.21237 40.9504 4.19141 40.9434 4.16992C40.9364 4.15594 40.9364 4.14197 40.9295 4.128C40.9225 4.1065 40.9085 4.08554 40.9015 4.05759C40.8945 4.04362 40.887 4.02911 40.88 4.02212C40.866 4.00116 40.8591 3.9802 40.8451 3.95871C40.8381 3.94473 40.8311 3.93076 40.8236 3.92377C40.8096 3.90926 40.8026 3.8883 40.7887 3.87433C40.7747 3.86036 40.7677 3.84638 40.7532 3.83187C40.7392 3.8179 40.7322 3.80393 40.7182 3.78995C40.7043 3.77544 40.6898 3.76147 40.6758 3.74051C40.6618 3.72654 40.6548 3.71955 40.6409 3.71203C40.6263 3.69805 40.6054 3.67709 40.5914 3.66312C40.5774 3.65613 40.5705 3.64915 40.5559 3.63464C40.535 3.62066 40.521 3.60669 40.5 3.59272C40.4855 3.58573 40.4716 3.57821 40.4576 3.57122C40.4366 3.55725 40.4221 3.55026 40.4012 3.53629C40.3802 3.5293 40.3662 3.51479 40.3447 3.5078C40.3308 3.50082 40.3168 3.49383 40.2953 3.48684C40.2673 3.47287 40.2319 3.46588 40.2039 3.45191C40.1969 3.45191 40.19 3.44439 40.183 3.44439C40.1405 3.43041 40.0981 3.42343 40.0561 3.40945L23.8193 0.0139731C23.7838 0.00698658 23.7489 0 23.7204 0C23.7134 0 23.7064 0 23.6995 0C23.6785 0 23.657 0 23.636 0C23.6151 0 23.5936 0 23.5796 0C23.5796 0 23.5796 0 23.5726 0C23.5517 0 23.5372 0 23.5162 0C23.4952 0 23.4737 0 23.4598 0C23.4318 0 23.4103 0.00698658 23.3824 0.0139731C23.3684 0.0139731 23.3544 0.0139731 23.3474 0.0209598H23.3399H23.3329L9.97028 2.63448C9.93481 2.64147 9.90686 2.64845 9.87139 2.65544C9.86441 2.65544 9.85742 2.65544 9.85043 2.66296C9.82249 2.66995 9.794 2.68392 9.76606 2.69091C9.75907 2.69091 9.75208 2.6979 9.73757 2.6979C9.71661 2.70488 9.69565 2.71886 9.68168 2.72584C9.52636 2.80377 9.39254 2.90212 9.28721 3.02895C9.28721 3.03594 9.27968 3.03594 9.27968 3.04293C9.2727 3.05744 9.26571 3.06442 9.25174 3.0784C9.17435 3.18373 9.11093 3.30358 9.06847 3.43041C9.06847 3.4374 9.06149 3.44439 9.06149 3.44439C9.0545 3.4589 9.0545 3.47287 9.04751 3.48684C9.04053 3.5078 9.03354 3.53629 9.02655 3.55725V3.57821C9.01903 3.61368 9.01204 3.64162 9.01204 3.67709V3.69107C9.01204 3.72654 9.00506 3.76147 9.00506 3.79694V13.1235L4.34877 14.0393C4.31383 14.0463 4.27836 14.0532 4.24343 14.0672C4.23644 14.0672 4.23644 14.0672 4.22946 14.0742C4.19399 14.0812 4.16604 14.0957 4.13057 14.1097C4.12358 14.1097 4.1166 14.1167 4.10961 14.1167C4.08811 14.1237 4.06715 14.1376 4.04619 14.1446C3.90539 14.215 3.77855 14.3139 3.67268 14.4268C3.66569 14.4337 3.65871 14.4477 3.64473 14.4547C3.63775 14.4617 3.63022 14.4757 3.62324 14.4902C3.53187 14.6095 3.46147 14.7503 3.41901 14.8986C3.41203 14.9266 3.40504 14.9475 3.39805 14.976V14.99C3.39107 15.0255 3.38408 15.0604 3.38408 15.0959V15.1028C3.37709 15.1378 3.37709 15.1802 3.37709 15.2157V48.6051H3.3556C2.69348 48.6051 2.1582 49.1404 2.1582 49.8025C2.1582 50.4646 2.69348 50.9999 3.3556 50.9999H47.8752C48.5373 50.9999 49.0726 50.4646 49.0726 49.8025C49.0656 49.1334 48.5303 48.5982 47.8682 48.5982ZM23.1712 15.3775C23.2625 15.4129 23.3684 15.4339 23.4668 15.4409L45.4519 20.0547V24.0559L17.9656 18.2866V14.2854L23.1712 15.3775ZM45.4519 30.2831L17.9656 24.5138V20.3014L45.4519 26.0707V30.2831ZM45.4519 32.2979V36.4678L17.9656 30.741V26.5286L45.4519 32.2979ZM17.9656 32.7553L45.4519 38.4896V42.702L17.9656 36.9752V32.7553ZM45.4519 44.7168V48.5982H17.9656V38.9825L45.4519 44.7168ZM24.763 13.2643V2.65544L38.619 5.55057V16.1734L24.763 13.2643ZM11.3859 4.78312L22.3682 2.63448V12.764L17.0144 11.644C17.0004 11.644 16.9794 11.637 16.9649 11.637C16.951 11.637 16.93 11.63 16.916 11.63C16.8875 11.623 16.8596 11.623 16.8311 11.623C16.8171 11.623 16.8032 11.623 16.7892 11.623C16.7537 11.623 16.7188 11.623 16.6833 11.623C16.6763 11.623 16.6693 11.623 16.6624 11.623C16.6199 11.63 16.5705 11.63 16.5285 11.644L11.3859 12.6516V4.78312ZM5.76489 16.1944L10.2449 15.3141C10.3648 15.3071 10.4846 15.2861 10.5899 15.2437L15.5703 14.2645V18.2796L7.50455 19.9494C6.96927 20.0617 6.63123 20.583 6.7371 21.1113C6.83545 21.5762 7.2439 21.9003 7.70179 21.9003C7.76521 21.9003 7.83561 21.8933 7.89903 21.8793L15.5633 20.2944V24.5068L7.49757 26.1761C6.96229 26.2889 6.62424 26.8102 6.73012 27.3385C6.82847 27.8034 7.23691 28.1275 7.6948 28.1275C7.75822 28.1275 7.82862 28.1205 7.89204 28.1065L15.5563 26.5216V30.741L7.49058 32.4102C6.9553 32.5231 6.61726 33.0444 6.72313 33.5727C6.82148 34.0376 7.22993 34.3616 7.68782 34.3616C7.75123 34.3616 7.82164 34.3547 7.88505 34.3407L15.5493 32.7553V36.9682L7.48359 38.6374C6.94831 38.7503 6.61027 39.2716 6.71561 39.7999C6.81449 40.2648 7.22294 40.5888 7.68083 40.5888C7.74425 40.5888 7.81465 40.5819 7.87807 40.5673L15.5703 38.9825V48.5982H5.76489V16.1944Z" fill="#C70100" stroke="white" stroke-width="0.4" mask="url(#path-1-inside-1_488_1567)"/>
<path d="M27.6589 7.67719L27.6592 7.67726L36.112 9.41736C36.1121 9.41738 36.1122 9.41739 36.1122 9.41741C36.5947 9.51924 36.9033 9.98788 36.8028 10.4612C36.7137 10.8799 36.346 11.1709 35.9354 11.1709C35.8802 11.1709 35.8236 11.1644 35.758 11.1514C35.7579 11.1514 35.7578 11.1514 35.7576 11.1513L27.3051 9.41182L27.3051 9.41182L27.3043 9.41167C26.8237 9.3166 26.514 8.8487 26.6153 8.36794L26.6156 8.36661C26.7102 7.88611 27.178 7.57628 27.6589 7.67719Z" fill="#C70100" stroke="white" stroke-width="0.2"/>
</svg>
