<svg width="72" height="72" viewBox="0 0 72 72" fill="none" xmlns="http://www.w3.org/2000/svg">
<path d="M67.0984 38.6521C66.3364 36.6372 63.7455 29.8409 63.0312 27.9545C62.7662 27.2659 62.2993 26.6733 61.6918 26.2545C61.0843 25.8356 60.3644 25.6101 59.6265 25.6073H47.4359C46.4702 25.6084 45.5443 25.9926 44.8615 26.6754C44.1786 27.3583 43.7945 28.2841 43.7933 29.2498V40.5934H39.024C39.0341 40.5651 43.3632 27.2629 43.3632 27.2629C43.5749 26.6143 43.5767 25.9154 43.3683 25.2657C43.1599 24.616 42.752 24.0485 42.2025 23.644L33.0793 16.9087C32.6244 16.5733 32.0899 16.3622 31.5285 16.2962L12.3028 14.0413C11.557 13.9557 10.8047 14.1302 10.1727 14.5351C9.54067 14.94 9.06775 15.5506 8.83377 16.2638L4.6589 29.1136C4.42834 29.828 4.45161 30.6002 4.72478 31.2994C4.99794 31.9987 5.50423 32.5822 6.15802 32.9512L8.60416 34.3244V40.5934H6.56341C6.41566 40.5933 6.26936 40.6224 6.13285 40.6789C5.99634 40.7355 5.87231 40.8183 5.76783 40.9228C5.66336 41.0273 5.58049 41.1513 5.52397 41.2878C5.46745 41.4243 5.43837 41.5706 5.43841 41.7184V50.8503C5.4394 51.7451 5.7953 52.603 6.42802 53.2357C7.06074 53.8685 7.91861 54.2243 8.81341 54.2253H12.1476C12.4168 55.458 13.0995 56.5615 14.0823 57.3527C15.065 58.144 16.2888 58.5754 17.5505 58.5754C18.8122 58.5754 20.036 58.1439 21.0188 57.3526C22.0015 56.5613 22.6841 55.4578 22.9533 54.2251L27.5287 54.2253C27.7982 55.4578 28.4811 56.5611 29.4638 57.3521C30.4466 58.1432 31.6703 58.5745 32.9319 58.5745C34.1935 58.5745 35.4172 58.1431 36.4 57.352C37.3827 56.5609 38.0655 55.4576 38.335 54.2251C41.188 54.2034 47.1576 54.2411 49.9812 54.2253C50.2509 55.4575 50.9338 56.5604 51.9165 57.3513C52.8992 58.1421 54.1227 58.5732 55.3841 58.5732C56.6455 58.5732 57.869 58.142 58.8517 57.3512C59.8344 56.5603 60.5172 55.4573 60.787 54.2251L63.858 54.2253C64.8236 54.2243 65.7495 53.8403 66.4323 53.1575C67.1152 52.4747 67.4994 51.549 67.5005 50.5833V40.8416C67.501 40.0934 67.3648 39.3513 67.0984 38.6521ZM32.5452 19.3113L40.8665 25.4546C41.0354 25.5789 41.1608 25.7533 41.2248 25.953C41.2888 26.1528 41.2882 26.3676 41.223 26.5669L36.918 39.8166C36.8534 40.0162 36.7276 40.1903 36.5583 40.3142C36.3891 40.438 36.1851 40.5054 35.9753 40.5066L25.6329 40.5858L32.5452 19.3113ZM7.25941 30.989C7.0584 30.8756 6.90277 30.6961 6.81888 30.4811C6.73499 30.2661 6.72799 30.0287 6.79908 29.8091L10.9739 16.9593C11.0395 16.7589 11.1667 16.5843 11.3374 16.4604C11.508 16.3365 11.7134 16.2697 11.9243 16.2694C12.0155 16.2588 30.3585 18.432 30.4635 18.4366L23.4349 40.0693L7.25941 30.989ZM19.7709 40.5934H10.8541V35.5876L19.7709 40.5934ZM17.5505 56.37C16.6897 56.3602 15.8675 56.0115 15.2623 55.3994C14.657 54.7873 14.3176 53.9612 14.3176 53.1004C14.3176 52.2395 14.6571 51.4135 15.2623 50.8014C15.8676 50.1893 16.6898 49.8405 17.5505 49.8308C18.4113 49.8405 19.2335 50.1893 19.8387 50.8014C20.444 51.4135 20.7834 52.2396 20.7834 53.1004C20.7834 53.9612 20.4439 54.7873 19.8387 55.3994C19.2334 56.0115 18.4112 56.3603 17.5505 56.37ZM32.9321 56.37C32.0711 56.3605 31.2487 56.0119 30.6432 55.3997C30.0378 54.7876 29.6982 53.9613 29.6982 53.1004C29.6982 52.2394 30.0378 51.4131 30.6433 50.801C31.2487 50.1889 32.0712 49.8402 32.9321 49.8308C33.7931 49.8403 34.6155 50.1889 35.221 50.801C35.8264 51.4132 36.166 52.2394 36.166 53.1004C36.166 53.9614 35.8264 54.7876 35.2209 55.3998C34.6155 56.0119 33.793 56.3605 32.9321 56.37ZM43.7933 51.9754H38.335C38.0765 50.7335 37.3982 49.6185 36.4141 48.8181C35.43 48.0177 34.2003 47.5808 32.9318 47.5808C31.6633 47.5808 30.4336 48.0177 29.4495 48.8181C28.4654 49.6185 27.7871 50.7335 27.5286 51.9754H22.9533C22.6949 50.7335 22.0167 49.6185 21.0326 48.8181C20.0486 48.0177 18.8188 47.5808 17.5504 47.5808C16.2819 47.5808 15.0522 48.0177 14.0682 48.8181C13.0841 49.6185 12.4059 50.7335 12.1475 51.9754H8.81344C8.51517 51.9751 8.22919 51.8564 8.01828 51.6455C7.80736 51.4346 7.68874 51.1486 7.68844 50.8504V42.8434C16.6224 42.843 34.8151 42.8437 43.7934 42.8434L43.7933 51.9754ZM62.2564 32.2481L64.7462 38.7971H54.1574V32.2481H62.2564ZM55.384 56.37C54.5235 56.36 53.7015 56.0111 53.0965 55.399C52.4915 54.7869 52.1521 53.961 52.1522 53.1004C52.1522 52.2397 52.4915 51.4138 53.0965 50.8017C53.7016 50.1896 54.5235 49.8408 55.3841 49.8308C56.2447 49.8408 57.0667 50.1897 57.6717 50.8017C58.2767 51.4138 58.616 52.2398 58.616 53.1004C58.616 53.9611 58.2767 54.787 57.6716 55.3991C57.0666 56.0112 56.2446 56.36 55.384 56.37ZM65.2505 50.5834C65.2501 50.9525 65.1032 51.3064 64.8421 51.5674C64.581 51.8284 64.2271 51.9751 63.8579 51.9754H60.7869C60.5286 50.7335 59.8503 49.6186 58.8663 48.8182C57.8822 48.0178 56.6525 47.5808 55.384 47.5808C54.1156 47.5808 52.8859 48.0178 51.9018 48.8182C50.9178 49.6186 50.2395 50.7335 49.9812 51.9754H46.0433V29.2498C46.0437 28.8806 46.1906 28.5267 46.4516 28.2656C46.7127 28.0045 47.0667 27.8577 47.4359 27.8573H59.6265C60.7911 27.8142 61.0729 29.1531 61.4009 29.9981L53.0324 29.998C52.734 29.998 52.4479 30.1166 52.2369 30.3275C52.0259 30.5385 51.9074 30.8247 51.9074 31.123V39.9221C51.9074 40.0698 51.9364 40.2161 51.993 40.3527C52.0495 40.4892 52.1323 40.6132 52.2368 40.7177C52.3413 40.8221 52.4653 40.905 52.6018 40.9615C52.7383 41.0181 52.8846 41.0471 53.0324 41.0471H65.2505V50.5834Z" fill="#C70100"/>
</svg>
