<svg width="56" height="56" viewBox="0 0 56 56" fill="none" xmlns="http://www.w3.org/2000/svg">
<path d="M52.2049 26.5485L49.9779 25.5909V24.0682C50.0092 14.7225 44.1124 6.38404 35.2902 3.29994V1.15394C35.2902 0.516948 34.7733 0 34.1367 0H21.7909C21.1543 0 20.6374 0.516948 20.6374 1.15394V3.31128C11.8153 6.39538 5.91844 14.7338 5.94973 24.0795V25.614L3.74586 26.5485C3.31884 26.7288 3.04199 27.1476 3.04199 27.6102V33.6677C3.04199 34.3043 3.55894 34.8213 4.19594 34.8213H5.69595V37.1292C5.69595 37.7658 6.2125 38.2827 6.8495 38.2827H10.9917C11.3851 39.7272 11.9631 41.1165 12.7107 42.4132L9.78031 45.344C9.33257 45.7937 9.33257 46.5206 9.78031 46.9707L14.6839 51.8743C15.1336 52.322 15.8605 52.322 16.3106 51.8743L19.241 48.9439C20.5345 49.6915 21.9192 50.2683 23.3602 50.6629V54.8051C23.3602 55.4417 23.8771 55.9587 24.5141 55.9587H31.4366C32.0736 55.9587 32.5905 55.4417 32.5905 54.8051V50.6629C34.035 50.2695 35.424 49.6927 36.721 48.9439L39.6519 51.8743C40.1015 52.322 40.8285 52.322 41.2786 51.8743L46.1821 46.9707C46.6299 46.5206 46.6299 45.7937 46.1821 45.344L43.2513 42.4132C43.999 41.1165 44.5773 39.7272 44.9707 38.2827H49.1126C49.7495 38.2827 50.2665 37.7658 50.2665 37.1292V34.8213H51.7665C52.4035 34.8213 52.9201 34.3043 52.9201 33.6677V27.6102C52.9177 27.1441 52.6354 26.7253 52.2049 26.5485ZM22.9218 2.31923H32.9828V21.5988H22.9449L22.9218 2.31923ZM47.9703 35.9752H44.1284C43.5747 35.9623 43.091 36.3455 42.9745 36.8863C42.5858 38.6933 41.8706 40.4135 40.8633 41.9631C40.5665 42.4191 40.6302 43.0201 41.013 43.4053L43.7706 46.1628L40.4707 49.4397L37.7131 46.6821C37.3279 46.2993 36.7269 46.2356 36.271 46.5324C34.7213 47.5393 33.0011 48.2549 31.1942 48.6436C30.653 48.7601 30.2701 49.2438 30.2827 49.7975V53.6856H25.6677V49.7627C25.6806 49.209 25.2974 48.7257 24.7562 48.6092C22.9496 48.2213 21.229 47.5061 19.6797 46.4976C19.2238 46.2012 18.6228 46.2645 18.2372 46.6477L15.4796 49.4053L12.2145 46.1398L14.9721 43.3822C15.3553 42.997 15.4186 42.396 15.1222 41.9401C14.1055 40.3998 13.3786 38.6874 12.9762 36.8863C12.8593 36.3455 12.376 35.9623 11.8223 35.9752H7.98037V34.8213H18.5258C19.1581 40.0342 23.8967 43.747 29.1096 43.1136C33.4524 42.5864 36.8755 39.1641 37.4018 34.8213H47.959L47.9703 35.9752ZM20.8794 34.8213H35.0826C34.448 38.7465 30.7511 41.4141 26.8263 40.7795C23.7641 40.2844 21.3632 37.8835 20.8681 34.8213H20.8794ZM50.6243 32.5138H5.33815V28.3715L7.5647 27.4139C7.99171 27.234 8.26856 26.8152 8.26856 26.3522V24.0447C8.24315 15.9867 13.1491 8.73416 20.6374 5.75721V22.7528C20.6374 23.3894 21.1539 23.9063 21.7909 23.9063H34.1594C34.7964 23.9063 35.3133 23.3894 35.3133 22.7528V5.75721C42.8142 8.73298 47.7259 15.9996 47.6935 24.0678V26.3757C47.6935 26.8383 47.9703 27.2571 48.3974 27.437L50.6239 28.3946V32.5138H50.6243Z" fill="#C70100"/>
</svg>
