<svg width="70" height="70" viewBox="0 0 70 70" fill="none" xmlns="http://www.w3.org/2000/svg">
<path d="M13.8318 54.733C13.0359 54.733 12.2577 54.9686 11.5955 55.4102C10.9332 55.8517 10.4164 56.4793 10.1102 57.214C9.80406 57.9488 9.72219 58.7577 9.87495 59.5388C10.0277 60.32 10.4083 61.0385 10.9686 61.6037C11.529 62.169 12.2442 62.5557 13.024 62.7152C13.8038 62.8747 14.6134 62.7998 15.3507 62.5C16.0881 62.2002 16.7202 61.6889 17.1674 61.0304C17.6146 60.372 17.8569 59.5959 17.8638 58.8C17.8675 58.2678 17.766 57.7402 17.5651 57.2474C17.3642 56.7545 17.0679 56.3063 16.6933 55.9284C16.3186 55.5504 15.8729 55.2503 15.3818 55.0451C14.8908 54.84 14.364 54.7339 13.8318 54.733ZM13.8318 60.697C13.4483 60.6969 13.0734 60.5827 12.7549 60.3688C12.4365 60.1549 12.189 59.8511 12.0438 59.496C11.8987 59.141 11.8625 58.7507 11.9399 58.375C12.0174 57.9993 12.2049 57.6552 12.4786 57.3864C12.7523 57.1177 13.0998 56.9365 13.4768 56.866C13.8539 56.7954 14.2434 56.8387 14.5958 56.9903C14.9481 57.1419 15.2474 57.395 15.4554 57.7173C15.6634 58.0396 15.7708 58.4165 15.7638 58.8C15.7529 59.3057 15.5447 59.7872 15.1838 60.1416C14.8228 60.496 14.3377 60.6953 13.8318 60.697ZM24.1218 54.733C23.3259 54.733 22.5477 54.9686 21.8855 55.4102C21.2232 55.8517 20.7064 56.4793 20.4002 57.214C20.0941 57.9488 20.0122 58.7577 20.1649 59.5388C20.3177 60.32 20.6983 61.0385 21.2586 61.6037C21.819 62.169 22.5342 62.5557 23.314 62.7152C24.0938 62.8747 24.9034 62.7998 25.6407 62.5C26.3781 62.2002 27.0102 61.6889 27.4574 61.0304C27.9046 60.372 28.1469 59.5959 28.1538 58.8C28.1575 58.2678 28.056 57.7402 27.8551 57.2474C27.6542 56.7545 27.3579 56.3063 26.9833 55.9284C26.6086 55.5504 26.1629 55.2503 25.6718 55.0451C25.1808 54.84 24.654 54.7339 24.1218 54.733ZM24.1218 60.697C23.7383 60.6969 23.3634 60.5827 23.0449 60.3688C22.7265 60.1549 22.4789 59.8511 22.3338 59.496C22.1887 59.141 22.1525 58.7507 22.2299 58.375C22.3074 57.9993 22.4949 57.6552 22.7686 57.3864C23.0423 57.1177 23.3898 56.9365 23.7668 56.866C24.1439 56.7954 24.5334 56.8387 24.8858 56.9903C25.2381 57.1419 25.5374 57.395 25.7454 57.7173C25.9534 58.0396 26.0608 58.4165 26.0538 58.8C26.0429 59.3057 25.8347 59.7872 25.4738 60.1416C25.1128 60.496 24.6277 60.6953 24.1218 60.697ZM40.6768 58.8C40.6768 59.5975 40.9133 60.377 41.3564 61.0401C41.7994 61.7031 42.4291 62.2199 43.1659 62.5251C43.9026 62.8303 44.7133 62.9101 45.4954 62.7545C46.2776 62.5989 46.996 62.2149 47.5599 61.6511C48.1238 61.0872 48.5078 60.3687 48.6634 59.5866C48.8189 58.8045 48.7391 57.9938 48.4339 57.257C48.1287 56.5203 47.612 55.8906 46.9489 55.4475C46.2858 55.0045 45.5063 54.768 44.7088 54.768C43.6401 54.7698 42.6156 55.1952 41.8598 55.951C41.1041 56.7067 40.6787 57.7312 40.6768 58.8ZM46.6408 58.8C46.6408 59.1821 46.5275 59.5556 46.3152 59.8734C46.103 60.1911 45.8012 60.4387 45.4482 60.5849C45.0952 60.7312 44.7067 60.7694 44.3319 60.6949C43.9572 60.6203 43.6129 60.4363 43.3427 60.1661C43.0725 59.8959 42.8885 59.5517 42.814 59.1769C42.7394 58.8021 42.7777 58.4137 42.9239 58.0607C43.0701 57.7076 43.3178 57.4059 43.6355 57.1936C43.9532 56.9813 44.3267 56.868 44.7088 56.868C45.2207 56.8698 45.711 57.074 46.0729 57.4359C46.4349 57.7978 46.639 58.2882 46.6408 58.8ZM34.4118 54.733C33.6159 54.733 32.8377 54.9686 32.1755 55.4102C31.5132 55.8517 30.9964 56.4793 30.6902 57.214C30.384 57.9488 30.3022 58.7577 30.4549 59.5388C30.6077 60.32 30.9883 61.0385 31.5486 61.6037C32.109 62.169 32.8242 62.5557 33.604 62.7152C34.3838 62.8747 35.1934 62.7998 35.9307 62.5C36.6681 62.2002 37.3002 61.6889 37.7474 61.0304C38.1946 60.372 38.4369 59.5959 38.4438 58.8C38.4475 58.2678 38.346 57.7402 38.1451 57.2474C37.9442 56.7545 37.6479 56.3063 37.2733 55.9284C36.8986 55.5504 36.4529 55.2503 35.9618 55.0451C35.4708 54.84 34.944 54.7339 34.4118 54.733ZM34.4118 60.697C34.0282 60.6969 33.6534 60.5827 33.3349 60.3688C33.0165 60.1549 32.7689 59.8511 32.6238 59.496C32.4787 59.141 32.4425 58.7507 32.5199 58.375C32.5974 57.9993 32.7849 57.6552 33.0586 57.3864C33.3323 57.1177 33.6798 56.9365 34.0568 56.866C34.4339 56.7954 34.8234 56.8387 35.1758 56.9903C35.5281 57.1419 35.8274 57.395 36.0354 57.7173C36.2434 58.0396 36.3508 58.4165 36.3438 58.8C36.3329 59.3057 36.1247 59.7872 35.7638 60.1416C35.4028 60.496 34.9177 60.6953 34.4118 60.697ZM38.3248 27.223H30.3378C30.0594 27.223 29.7923 27.3336 29.5954 27.5305C29.3985 27.7274 29.2878 27.9945 29.2878 28.273V36.981C29.2878 37.2595 29.3985 37.5265 29.5954 37.7235C29.7923 37.9204 30.0594 38.031 30.3378 38.031H41.9998C42.1731 38.0311 42.3436 37.9883 42.4963 37.9064C42.6489 37.8246 42.779 37.7063 42.8748 37.562C42.9713 37.4182 43.0301 37.2525 43.046 37.0801C43.0619 36.9077 43.0344 36.734 42.9658 36.575L39.2978 27.86C39.2157 27.6703 39.0798 27.5089 38.9068 27.3957C38.7339 27.2824 38.5315 27.2224 38.3248 27.223ZM31.3878 35.931V29.323H37.6318L40.4318 35.931H31.3878ZM20.4888 42.147C20.4888 42.4255 20.3782 42.6925 20.1813 42.8895C19.9844 43.0864 19.7173 43.197 19.4388 43.197H14.1888C13.9104 43.197 13.6433 43.0864 13.4464 42.8895C13.2495 42.6925 13.1388 42.4255 13.1388 42.147C13.1388 41.8685 13.2495 41.6015 13.4464 41.4045C13.6433 41.2076 13.9104 41.097 14.1888 41.097H19.4388C19.7173 41.097 19.9844 41.2076 20.1813 41.4045C20.3782 41.6015 20.4888 41.8685 20.4888 42.147ZM64.3368 31.059L60.1998 8.638C60.0687 7.85738 59.7809 7.11137 59.3539 6.4449C58.9268 5.77843 58.3693 5.20529 57.7148 4.76C57.2173 4.42065 56.657 4.18396 56.0669 4.06376C55.4767 3.94357 54.8685 3.94229 54.2778 4.06H54.1938C53.9116 4.12373 53.637 4.2176 53.3748 4.34L31.0588 12.299C29.8748 12.7225 28.8502 13.501 28.1248 14.5282C27.3995 15.5555 27.0087 16.7815 27.0058 18.039V21.098H24.3388C24.0604 21.098 23.7933 21.2086 23.5964 21.4055C23.3995 21.6024 23.2888 21.8695 23.2888 22.148L23.2468 35.7H8.87585C8.59737 35.7 8.3303 35.8106 8.13338 36.0075C7.93647 36.2044 7.82585 36.4715 7.82585 36.75V47.6C7.82585 47.8785 7.93647 48.1455 8.13338 48.3425C8.3303 48.5394 8.59737 48.65 8.87585 48.65H11.7388V51.1H10.7028C8.78063 51.1018 6.93747 51.8653 5.57694 53.2232C4.21642 54.5811 3.4494 56.4228 3.44385 58.345V58.758C3.4457 60.6833 4.21085 62.5293 5.57158 63.8913C6.9323 65.2534 8.77757 66.0203 10.7028 66.024H46.5918C48.5183 66.0221 50.3654 65.256 51.7276 63.8938C53.0899 62.5316 53.856 60.6845 53.8578 58.758V58.345C53.8523 56.4216 53.0843 54.5788 51.7223 53.2207C50.3602 51.8626 48.5153 51.1 46.5918 51.1H45.9898V48.664H48.6708C48.9481 48.6585 49.2119 48.5435 49.4047 48.3442C49.5975 48.1448 49.7036 47.8773 49.6998 47.6V36.778C49.7009 36.6202 49.665 36.4644 49.5948 36.323L42.6998 21.7C42.6152 21.5207 42.4816 21.369 42.3143 21.2624C42.1471 21.1559 41.9531 21.0989 41.7548 21.098H40.6628V17.885L51.2188 11.998L58.3308 31.955L53.4308 45.955C53.3624 46.1525 53.3546 46.3659 53.4082 46.568C53.4618 46.77 53.5745 46.9514 53.7318 47.089C53.9245 47.2599 54.1743 47.3523 54.4318 47.348C54.5949 47.3492 54.7559 47.3107 54.9008 47.236L62.9998 43.183C64.3819 42.6402 65.4943 41.5745 66.0958 40.2169C66.6973 38.8593 66.7393 37.3194 66.2128 35.931L64.3368 31.059ZM51.7368 58.359V58.772C51.735 60.1415 51.1901 61.4545 50.2217 62.4229C49.2533 63.3913 47.9404 63.9361 46.5708 63.938H10.7028C9.33452 63.9343 8.0234 63.3886 7.0565 62.4204C6.0896 61.4522 5.54569 60.1403 5.54385 58.772V58.359C5.54754 56.9919 6.09226 55.6818 7.05896 54.7151C8.02566 53.7484 9.33573 53.2037 10.7028 53.2H46.5918C47.9578 53.2018 49.2675 53.7438 50.2353 54.7077C51.2031 55.6716 51.7505 56.9791 51.7578 58.345L51.7368 58.359ZM43.8898 51.1H13.8388V48.664H43.8898V51.1ZM47.5998 37.009V46.564H9.92585V37.8H24.2968C24.5748 37.7982 24.8408 37.687 25.0373 37.4904C25.2338 37.2939 25.345 37.0279 25.3468 36.75V23.17H41.0268L47.5998 37.009ZM39.1018 16.345C38.9385 16.436 38.8024 16.569 38.7076 16.7302C38.6129 16.8914 38.5629 17.075 38.5628 17.262V21.098H29.1058V18.039C29.1074 17.2146 29.3639 16.4109 29.8401 15.7379C30.3163 15.065 30.9889 14.5558 31.7658 14.28L50.7918 7.518C50.5688 8.30013 50.5092 9.11983 50.6168 9.926L39.1018 16.345ZM52.7938 10.164C52.6592 9.68894 52.6202 9.19187 52.679 8.70161C52.7379 8.21136 52.8935 7.73767 53.1368 7.308C53.414 6.85749 53.8252 6.50502 54.3128 6.3L54.6908 6.167C55.0133 6.10028 55.346 6.10001 55.6685 6.1662C55.9911 6.2324 56.2967 6.36367 56.5668 6.552C56.9847 6.8411 57.3401 7.21135 57.6119 7.64067C57.8837 8.07 58.0663 8.54963 58.1488 9.051L62.0968 30.506L60.1438 30.8L52.7938 10.164ZM62.1808 41.244C62.1455 41.2506 62.112 41.265 62.0828 41.286L56.2658 44.198L60.1998 32.9L62.6148 32.522L64.1968 36.687C64.5268 37.5591 64.5003 38.5261 64.1231 39.3788C63.7458 40.2315 63.0481 40.9016 62.1808 41.244ZM56.4478 8.827C56.6435 9.02458 56.7541 9.29092 56.7558 9.569C56.7556 9.84738 56.6448 10.1143 56.4478 10.311C56.2485 10.5084 55.9793 10.6191 55.6988 10.619C55.4216 10.6172 55.1563 10.5057 54.9609 10.309C54.7655 10.1123 54.6558 9.84627 54.6558 9.569C54.6558 9.506 54.6558 9.436 54.6558 9.366C54.6859 9.2312 54.7405 9.10307 54.8168 8.988C54.8552 8.92965 54.8998 8.87566 54.9498 8.827C55.1532 8.63756 55.4209 8.53224 55.6988 8.53224C55.9768 8.53224 56.2444 8.63756 56.4478 8.827Z" fill="#C70100"/>
</svg>
